<svg width="175" height="38" viewBox="0 0 175 38" fill="none" xmlns="http://www.w3.org/2000/svg">
<path d="M54.988 23.668H55.474C55.738 23.668 55.918 23.62 56.014 23.524C56.122 23.416 56.176 23.248 56.176 23.02V14.704H54.52C54.28 14.704 54.106 14.758 53.998 14.866C53.89 14.962 53.836 15.124 53.836 15.352V15.928H52.414V13.372H61.828V15.928H60.406V15.352C60.406 15.112 60.352 14.944 60.244 14.848C60.148 14.752 59.974 14.704 59.722 14.704H58.084V23.02C58.084 23.248 58.132 23.416 58.228 23.524C58.336 23.62 58.522 23.668 58.786 23.668H59.272V25H54.988V23.668ZM62.0335 23.668H62.4835C62.7235 23.668 62.8915 23.62 62.9875 23.524C63.0955 23.416 63.1495 23.242 63.1495 23.002V18.358C63.1495 18.13 63.1015 17.962 63.0055 17.854C62.9095 17.746 62.7475 17.692 62.5195 17.692H62.1415V16.36H64.6255L64.8775 17.35C65.1175 16.978 65.4235 16.72 65.7955 16.576C66.1795 16.432 66.6295 16.36 67.1455 16.36H67.9735V17.692H66.9655C66.2815 17.692 65.7955 17.848 65.5075 18.16C65.2195 18.46 65.0755 18.928 65.0755 19.564V23.002C65.0755 23.242 65.1235 23.416 65.2195 23.524C65.3155 23.62 65.4775 23.668 65.7055 23.668H66.1555V25H62.0335V23.668ZM71.2738 25.27C70.3138 25.27 69.5818 25.06 69.0778 24.64C68.5858 24.22 68.3398 23.626 68.3398 22.858C68.3398 21.994 68.6098 21.364 69.1498 20.968C69.7018 20.56 70.4938 20.32 71.5258 20.248L74.0458 20.086V18.988C74.0458 18.424 73.9258 18.016 73.6858 17.764C73.4458 17.512 73.0378 17.386 72.4618 17.386C72.0658 17.386 71.7358 17.422 71.4718 17.494C71.2198 17.554 70.9858 17.656 70.7698 17.8V18.448H69.0958V17.026C70.1038 16.402 71.2378 16.09 72.4978 16.09C74.8018 16.09 75.9538 17.11 75.9538 19.15V23.092C75.9538 23.332 75.9958 23.506 76.0798 23.614C76.1758 23.722 76.3258 23.776 76.5298 23.776H76.9258V25H74.8558L74.6218 23.866C74.2378 24.358 73.7878 24.718 73.2718 24.946C72.7678 25.162 72.1018 25.27 71.2738 25.27ZM71.7058 23.974C72.4258 23.974 72.9958 23.818 73.4158 23.506C73.8358 23.194 74.0458 22.72 74.0458 22.084V21.22L71.6698 21.4C71.0818 21.436 70.6738 21.562 70.4458 21.778C70.2178 21.982 70.1038 22.312 70.1038 22.768C70.1038 23.164 70.2298 23.464 70.4818 23.668C70.7338 23.872 71.1418 23.974 71.7058 23.974ZM78.2131 18.088C78.1531 17.896 78.0631 17.77 77.9431 17.71C77.8351 17.638 77.6311 17.602 77.3311 17.602H76.9531V16.36H79.4551L81.6871 23.11L83.9191 16.36H86.4211V17.602H86.0251C85.7371 17.602 85.5331 17.638 85.4131 17.71C85.3051 17.77 85.2151 17.896 85.1431 18.088L82.6771 25H80.6971L78.2131 18.088ZM90.7741 25.27C89.4061 25.27 88.3081 24.892 87.4801 24.136C86.6641 23.368 86.2561 22.252 86.2561 20.788C86.2561 19.228 86.6341 18.058 87.3901 17.278C88.1581 16.486 89.2441 16.09 90.6481 16.09C92.0041 16.09 93.0301 16.474 93.7261 17.242C94.4221 18.01 94.7701 19.048 94.7701 20.356V21.184H88.1641C88.1641 22.156 88.3981 22.876 88.8661 23.344C89.3461 23.8 89.9881 24.028 90.7921 24.028C91.2481 24.028 91.6321 23.998 91.9441 23.938C92.2561 23.866 92.5381 23.752 92.7901 23.596V22.948H94.4641V24.208C93.9601 24.568 93.4141 24.832 92.8261 25C92.2501 25.18 91.5661 25.27 90.7741 25.27ZM92.9161 20.014C92.9161 18.262 92.1541 17.386 90.6301 17.386C89.8261 17.386 89.2141 17.62 88.7941 18.088C88.3741 18.556 88.1641 19.198 88.1641 20.014H92.9161ZM95.9592 23.668H96.4812C96.7212 23.668 96.8892 23.614 96.9852 23.506C97.0932 23.398 97.1472 23.224 97.1472 22.984V15.082C97.1472 14.854 97.0932 14.692 96.9852 14.596C96.8892 14.488 96.7212 14.434 96.4812 14.434H95.9592V13.084H99.0732V23.002C99.0732 23.23 99.1272 23.398 99.2352 23.506C99.3432 23.614 99.5112 23.668 99.7392 23.668H100.261V25H95.9592V23.668ZM107.561 23.704H107.975C108.215 23.704 108.383 23.65 108.479 23.542C108.587 23.434 108.641 23.26 108.641 23.02V15.316C108.641 15.088 108.587 14.926 108.479 14.83C108.383 14.722 108.215 14.668 107.975 14.668H107.561V13.354H112.745C114.413 13.354 115.649 13.864 116.453 14.884C117.269 15.904 117.677 17.35 117.677 19.222C117.677 20.974 117.257 22.378 116.417 23.434C115.589 24.478 114.365 25 112.745 25H107.561V23.704ZM112.493 23.704C113.669 23.704 114.515 23.332 115.031 22.588C115.547 21.844 115.805 20.722 115.805 19.222C115.805 17.686 115.547 16.54 115.031 15.784C114.515 15.028 113.669 14.65 112.493 14.65H110.549V23.704H112.493ZM121.073 25.27C120.113 25.27 119.381 25.06 118.877 24.64C118.385 24.22 118.139 23.626 118.139 22.858C118.139 21.994 118.409 21.364 118.949 20.968C119.501 20.56 120.293 20.32 121.325 20.248L123.845 20.086V18.988C123.845 18.424 123.725 18.016 123.485 17.764C123.245 17.512 122.837 17.386 122.261 17.386C121.865 17.386 121.535 17.422 121.271 17.494C121.019 17.554 120.785 17.656 120.569 17.8V18.448H118.895V17.026C119.903 16.402 121.037 16.09 122.297 16.09C124.601 16.09 125.753 17.11 125.753 19.15V23.092C125.753 23.332 125.795 23.506 125.879 23.614C125.975 23.722 126.125 23.776 126.329 23.776H126.725V25H124.655L124.421 23.866C124.037 24.358 123.587 24.718 123.071 24.946C122.567 25.162 121.901 25.27 121.073 25.27ZM121.505 23.974C122.225 23.974 122.795 23.818 123.215 23.506C123.635 23.194 123.845 22.72 123.845 22.084V21.22L121.469 21.4C120.881 21.436 120.473 21.562 120.245 21.778C120.017 21.982 119.903 22.312 119.903 22.768C119.903 23.164 120.029 23.464 120.281 23.668C120.533 23.872 120.941 23.974 121.505 23.974ZM131.848 28.6C130.384 28.6 129.22 28.186 128.356 27.358V26.062H130.03V26.71C130.426 27.142 131.008 27.358 131.776 27.358C132.4 27.358 132.868 27.178 133.18 26.818C133.504 26.458 133.666 25.93 133.666 25.234V23.956C133.33 24.292 132.958 24.538 132.55 24.694C132.142 24.838 131.668 24.91 131.128 24.91C130.096 24.91 129.292 24.646 128.716 24.118C128.14 23.578 127.852 22.822 127.852 21.85V18.358C127.852 18.13 127.798 17.962 127.69 17.854C127.582 17.746 127.414 17.692 127.186 17.692H126.664V16.36H129.76V21.904C129.76 23.08 130.342 23.668 131.506 23.668C132.13 23.668 132.628 23.494 133 23.146C133.372 22.786 133.558 22.27 133.558 21.598V18.358C133.558 18.118 133.51 17.95 133.414 17.854C133.33 17.746 133.174 17.692 132.946 17.692H132.478V16.36H135.484V24.838C135.484 25.978 135.154 26.89 134.494 27.574C133.846 28.258 132.964 28.6 131.848 28.6ZM137.219 23.416H138.893V25H137.219V23.416ZM144.882 25.27C144.018 25.27 143.232 25.096 142.524 24.748C141.828 24.4 141.276 23.884 140.868 23.2C140.46 22.516 140.256 21.7 140.256 20.752C140.256 19.24 140.658 18.088 141.462 17.296C142.278 16.492 143.4 16.09 144.828 16.09C145.608 16.09 146.262 16.174 146.79 16.342C147.318 16.51 147.828 16.78 148.32 17.152V18.88H146.646V17.89C146.37 17.734 146.106 17.626 145.854 17.566C145.602 17.506 145.26 17.476 144.828 17.476C144.024 17.476 143.37 17.746 142.866 18.286C142.374 18.814 142.128 19.636 142.128 20.752C142.128 21.808 142.41 22.594 142.974 23.11C143.55 23.614 144.282 23.866 145.17 23.866C145.722 23.866 146.19 23.818 146.574 23.722C146.97 23.626 147.342 23.464 147.69 23.236L148.356 24.334C147.852 24.682 147.336 24.922 146.808 25.054C146.292 25.198 145.65 25.27 144.882 25.27ZM153.702 25.27C152.238 25.27 151.134 24.868 150.39 24.064C149.646 23.26 149.274 22.138 149.274 20.698C149.274 19.246 149.64 18.118 150.372 17.314C151.116 16.498 152.226 16.09 153.702 16.09C155.178 16.09 156.282 16.498 157.014 17.314C157.758 18.118 158.13 19.246 158.13 20.698C158.13 22.138 157.758 23.26 157.014 24.064C156.27 24.868 155.166 25.27 153.702 25.27ZM153.702 23.92C154.566 23.92 155.208 23.656 155.628 23.128C156.048 22.6 156.258 21.79 156.258 20.698C156.258 19.594 156.048 18.778 155.628 18.25C155.208 17.71 154.566 17.44 153.702 17.44C152.838 17.44 152.196 17.71 151.776 18.25C151.368 18.778 151.164 19.594 151.164 20.698C151.164 21.79 151.368 22.6 151.776 23.128C152.196 23.656 152.838 23.92 153.702 23.92ZM159.311 23.668H159.761C160.001 23.668 160.169 23.62 160.265 23.524C160.373 23.416 160.427 23.242 160.427 23.002V18.358C160.427 18.13 160.373 17.968 160.265 17.872C160.169 17.764 160.001 17.71 159.761 17.71H159.401V16.36H161.651L161.777 17.584C162.101 17.08 162.503 16.708 162.983 16.468C163.475 16.216 164.069 16.09 164.765 16.09C165.293 16.09 165.749 16.21 166.133 16.45C166.517 16.69 166.805 17.032 166.997 17.476C167.297 16.996 167.663 16.648 168.095 16.432C168.539 16.204 169.091 16.09 169.751 16.09C170.735 16.09 171.443 16.336 171.875 16.828C172.319 17.32 172.541 18.058 172.541 19.042V23.002C172.541 23.23 172.595 23.398 172.703 23.506C172.811 23.614 172.979 23.668 173.207 23.668H173.711V25H170.651V19.042C170.651 18.442 170.537 18.016 170.309 17.764C170.081 17.512 169.697 17.386 169.157 17.386C168.605 17.386 168.167 17.542 167.843 17.854C167.531 18.166 167.375 18.622 167.375 19.222V23.002C167.375 23.242 167.417 23.416 167.501 23.524C167.597 23.62 167.759 23.668 167.987 23.668H168.473V25H165.593V19.096C165.593 18.508 165.479 18.076 165.251 17.8C165.023 17.524 164.663 17.386 164.171 17.386C163.571 17.386 163.109 17.554 162.785 17.89C162.461 18.226 162.299 18.718 162.299 19.366V23.002C162.299 23.242 162.341 23.416 162.425 23.524C162.521 23.62 162.683 23.668 162.911 23.668H163.397V25H159.311V23.668Z" fill="white"/>
<path d="M24.2409 29.925C22.7209 31.5084 20.9792 33.1392 19 34.8334C10.5609 27.6292 6.33337 21.4067 6.33337 16.15C6.33337 8.26502 12.35 3.16669 19 3.16669C25.3334 3.16669 31.0967 7.79002 31.6192 15.0417H37.2084L30.0834 22.1667L22.9584 15.0417H28.4525C27.9459 9.88002 23.9559 6.33335 19 6.33335C13.6959 6.33335 9.50004 10.4025 9.50004 16.15C9.50004 19.855 12.5875 24.7634 19 30.6217C20.0134 29.6875 20.9475 28.785 21.8025 27.9142C21.5239 27.3644 21.3775 26.7572 21.375 26.1409C21.375 25.091 21.7921 24.0842 22.5344 23.3419C23.2767 22.5996 24.2836 22.1825 25.3334 22.1825C26.3832 22.1825 27.39 22.5996 28.1323 23.3419C28.8747 24.0842 29.2917 25.091 29.2917 26.1409C29.2912 26.7531 29.1481 27.3569 28.8739 27.9043C28.5997 28.4518 28.2019 28.9279 27.7119 29.295C27.2219 29.6621 26.6531 29.9102 26.0507 30.0195C25.4483 30.1289 24.8286 30.0965 24.2409 29.925Z" fill="white"/>
</svg>
