<svg width="40" height="40" viewBox="0 0 40 40" fill="none" xmlns="http://www.w3.org/2000/svg">
<rect width="40" height="40" rx="5" fill="#FA793C"/>
<path d="M19.8844 16.8254V13.0158H15.9191V10.4762H19.8844V6.66663H22.5279V10.4762H26.4932V13.0158H22.5279V16.8254H19.8844ZM14.5973 33.3333C13.8703 33.3333 13.2482 33.0848 12.731 32.5879C12.2128 32.0901 11.9538 31.492 11.9538 30.7936C11.9538 30.0952 12.2128 29.4971 12.731 28.9993C13.2482 28.5024 13.8703 28.2539 14.5973 28.2539C15.3243 28.2539 15.9464 28.5024 16.4636 28.9993C16.9818 29.4971 17.2408 30.0952 17.2408 30.7936C17.2408 31.492 16.9818 32.0901 16.4636 32.5879C15.9464 33.0848 15.3243 33.3333 14.5973 33.3333ZM27.815 33.3333C27.088 33.3333 26.4659 33.0848 25.9486 32.5879C25.4305 32.0901 25.1714 31.492 25.1714 30.7936C25.1714 30.0952 25.4305 29.4971 25.9486 28.9993C26.4659 28.5024 27.088 28.2539 27.815 28.2539C28.5419 28.2539 29.1645 28.5024 29.6826 28.9993C30.1999 29.4971 30.4585 30.0952 30.4585 30.7936C30.4585 31.492 30.1999 32.0901 29.6826 32.5879C29.1645 33.0848 28.5419 33.3333 27.815 33.3333ZM14.5973 26.9841C13.606 26.9841 12.846 26.5659 12.3172 25.7295C11.7885 24.8939 11.7775 24.0635 12.2842 23.2381L14.0686 20.1269L9.31022 10.4762H6.66669V7.93647H10.9955L16.613 19.365H25.8984L31.0203 10.4762L33.3334 11.6825L28.2115 20.5714C27.9692 20.9947 27.6498 21.3227 27.2532 21.5555C26.8567 21.7883 26.4051 21.9047 25.8984 21.9047H16.0512L14.5973 24.4444H30.4585V26.9841H14.5973Z" fill="white"/>
</svg>
